Coordinates
version=1
nRows=8
nColumns=34
inDegrees=yes

Units are S.I. units (second, meters, Newtons, ...)
If the header above contains a line with 'inDegrees', this indicates whether rotational values are in degrees (yes) or radians (no).

endheader
time	pelvis_tilt	pelvis_list	pelvis_rotation	pelvis_tx	pelvis_ty	pelvis_tz	hip_flexion_r	hip_adduction_r	hip_rotation_r	knee_angle_r	ankle_angle_r	subtalar_angle_r	mtp_angle_r	hip_flexion_l	hip_adduction_l	hip_rotation_l	knee_angle_l	ankle_angle_l	subtalar_angle_l	mtp_angle_l	lumbar_extension	lumbar_bending	lumbar_rotation	arm_flex_r	arm_add_r	arm_rot_r	elbow_flex_r	pro_sup_r	arm_flex_l	arm_add_l	arm_rot_l	elbow_flex_l	pro_sup_l
      3.30000000	     -4.43297939	      1.40669104	      2.88926356	      0.62082818	      0.74006619	     -0.04256807	     51.22170855	     -4.12588567	      8.24841317	     84.76858042	     31.05121041	     -8.19022474	      0.00000000	     53.86427225	     -1.72595304	      7.53230436	     79.05964235	     26.56778013	     -0.79863425	      0.00000000	    -49.94105523	     -1.25746306	     -5.53571283	     17.15984576	    -18.01147199	     13.43707788	     51.57218553	     85.94698491	     21.47374373	    -13.44423980	      3.87598232	     38.06410752	     68.57218035
      3.31666670	     -6.53393302	      1.27504166	      2.12218003	      0.62163944	      0.71927722	     -0.03991653	     55.03149454	     -3.59524758	      8.50818882	     87.49172449	     31.31629681	     -8.26589552	      0.00000000	     57.59449711	     -2.50872138	      7.52947070	     81.42450607	     27.93199217	     -0.83216007	      0.00000000	    -52.22169125	     -1.44092315	     -6.26026311	     24.20505760	    -16.36673726	     14.97804062	     54.08221165	     86.68667902	     28.49549011	    -14.89389676	      7.31440014	     37.34924733	     67.71170061
      3.33333330	     -9.59855086	      1.12076811	      1.42110128	      0.61771719	      0.70292054	     -0.03896364	     59.94970566	     -3.15531366	      8.89626688	     90.03297639	     31.66818484	     -8.37009665	      0.00000000	     62.61533485	     -3.39745859	      7.34300633	     84.30356710	     29.06819242	     -0.40854162	      0.00000000	    -53.60143701	     -1.67816040	     -6.86020966	     31.27181252	    -14.59040438	     15.65326038	     56.66754196	     87.60152478	     36.40222955	    -16.29114194	     11.27012246	     37.15412359	     66.56980838
      3.35000000	    -12.58965141	      1.18235104	      1.31723431	      0.62620305	      0.69087961	     -0.04066106	     64.04740011	     -3.35921954	      9.32623790	     92.22755707	     32.63464590	     -7.65307225	      0.00000000	     67.22810873	     -3.93386369	      7.08674875	     86.85703591	     30.07765362	      0.48406986	      0.00000000	    -54.49707543	     -1.61822182	     -7.95612155	     36.40476403	    -12.64715056	     15.65662445	     59.70527944	     87.82034106	     42.94155476	    -17.08159638	     12.15302655	     37.70958585	     66.24041717
      3.36666670	    -16.21471744	      1.15633136	      1.16669960	      0.63217868	      0.67017926	     -0.04542194	     68.78967388	     -4.01033946	      9.53148228	     94.46519793	     33.25212460	     -6.50284386	      0.00000000	     72.54849614	     -4.37094194	      6.70200857	     89.44181905	     31.40044513	      1.44266806	      0.00000000	    -53.69757923	     -1.24748340	     -7.75925427	     39.07748555	    -12.28594434	     14.38402471	     66.22559703	     88.59536970	     48.67827282	    -17.18285249	     15.83774106	     39.46614641	     64.72324723
      3.38333330	    -19.88399277	      1.07741016	      1.66741567	      0.62449980	      0.65601089	     -0.04864020	     73.77479261	     -5.24761672	      9.62407655	     96.25203430	     33.76479120	     -5.39030476	      0.00000000	     77.93459956	     -4.24094146	      6.27233970	     91.59507021	     32.21148814	      1.71862056	      0.00000000	    -52.80959917	     -0.52367150	     -7.92232791	     42.23858427	    -11.71725265	     13.74987312	     71.99937853	     89.19092807	     54.56758469	    -17.25066712	     17.26785763	     41.76003405	     63.53614396
      3.40000000	    -22.84196003	      1.07858042	      2.11690669	      0.63527596	      0.64708159	     -0.04923839	     77.38332537	     -6.29743332	      9.88775277	     97.62261857	     34.60590558	     -3.78179607	      0.00000000	     81.70889254	     -4.19111363	      5.97558373	     93.17886212	     32.59984238	      2.38864572	      0.00000000	    -52.26784849	      0.27490526	     -8.10360428	     44.63653249	    -10.69648445	     13.47534120	     76.96959403	     89.56998473	     59.72783937	    -17.15515968	     17.24119207	     44.93473498	     62.73134616
      3.41666670	    -25.65076721	      1.03690542	      2.40086526	      0.63564002	      0.63182167	     -0.05037344	     81.16232557	     -6.81046364	     10.44642416	     99.35542132	     34.48452021	     -2.80638742	      0.00000000	     85.51601903	     -4.18404616	      5.85163799	     95.20814737	     33.75353271	      3.37747143	      0.00000000	    -51.45529975	      1.00487852	     -7.91063269	     45.77729935	    -10.31034958	     13.32686388	     83.23784806	     90.01864037	     64.08902773	    -16.88606044	     16.59079057	     49.03748397	     61.81109965
